<svg width="48" height="48" viewBox="0 0 48 48" fill="none" xmlns="http://www.w3.org/2000/svg">
<path d="M37.7999 46.5H10.2C9.93473 46.5 9.68038 46.3946 9.49284 46.2071C9.30531 46.0196 9.19995 45.7652 9.19995 45.5V9C9.19995 8.73478 9.30531 8.48043 9.49284 8.29289C9.68038 8.10536 9.93473 8 10.2 8H17.6C17.8652 8 18.1195 8.10536 18.3071 8.29289C18.4946 8.48043 18.6 8.73478 18.6 9C18.6 9.26522 18.4946 9.51957 18.3071 9.70711C18.1195 9.89464 17.8652 10 17.6 10H11.2V44.5H36.7999V10H30.4C30.1347 10 29.8804 9.89464 29.6928 9.70711C29.5053 9.51957 29.4 9.26522 29.4 9C29.4 8.73478 29.5053 8.48043 29.6928 8.29289C29.8804 8.10536 30.1347 8 30.4 8H37.7999C38.0652 8 38.3195 8.10536 38.5071 8.29289C38.6946 8.48043 38.7999 8.73478 38.7999 9V45.5C38.7999 45.7652 38.6946 46.0196 38.5071 46.2071C38.3195 46.3946 38.0652 46.5 37.7999 46.5Z" fill="#426FA4"/>
<path fill-rule="evenodd" clip-rule="evenodd" d="M16 19.59C16.3165 19.59 16.6258 19.6838 16.8889 19.8596C17.1521 20.0354 17.3571 20.2853 17.4782 20.5777C17.5993 20.87 17.631 21.1917 17.5693 21.5021C17.5075 21.8125 17.3552 22.0976 17.1314 22.3213C16.9076 22.5451 16.6225 22.6975 16.3122 22.7592C16.0018 22.821 15.6801 22.7893 15.3877 22.6682C15.0954 22.5471 14.8455 22.342 14.6697 22.0789C14.4939 21.8158 14.4 21.5064 14.4 21.19C14.4 20.7656 14.5686 20.3587 14.8687 20.0586C15.1687 19.7585 15.5757 19.59 16 19.59Z" fill="#426FA4"/>
<path d="M33.58 22.1899H19.88C19.6148 22.1899 19.3604 22.0846 19.1729 21.897C18.9854 21.7095 18.88 21.4552 18.88 21.1899C18.88 20.9247 18.9854 20.6704 19.1729 20.4828C19.3604 20.2953 19.6148 20.1899 19.88 20.1899H33.58C33.8452 20.1899 34.0996 20.2953 34.2871 20.4828C34.4746 20.6704 34.58 20.9247 34.58 21.1899C34.58 21.4552 34.4746 21.7095 34.2871 21.897C34.0996 22.0846 33.8452 22.1899 33.58 22.1899Z" fill="#426FA4"/>
<path fill-rule="evenodd" clip-rule="evenodd" d="M16 26.6C16.3165 26.6 16.6258 26.6938 16.8889 26.8696C17.1521 27.0454 17.3571 27.2953 17.4782 27.5877C17.5993 27.88 17.631 28.2017 17.5693 28.5121C17.5075 28.8225 17.3552 29.1076 17.1314 29.3313C16.9076 29.5551 16.6225 29.7075 16.3122 29.7692C16.0018 29.831 15.6801 29.7993 15.3877 29.6782C15.0954 29.5571 14.8455 29.352 14.6697 29.0889C14.4939 28.8258 14.4 28.5164 14.4 28.2C14.4 27.7756 14.5686 27.3687 14.8687 27.0686C15.1687 26.7685 15.5757 26.6 16 26.6Z" fill="#426FA4"/>
<path d="M33.58 29.2H19.88C19.6148 29.2 19.3604 29.0946 19.1729 28.9071C18.9854 28.7195 18.88 28.4652 18.88 28.2C18.88 27.9347 18.9854 27.6804 19.1729 27.4928C19.3604 27.3053 19.6148 27.2 19.88 27.2H33.58C33.8452 27.2 34.0996 27.3053 34.2871 27.4928C34.4746 27.6804 34.58 27.9347 34.58 28.2C34.58 28.4652 34.4746 28.7195 34.2871 28.9071C34.0996 29.0946 33.8452 29.2 33.58 29.2Z" fill="#426FA4"/>
<path fill-rule="evenodd" clip-rule="evenodd" d="M16 33.6C16.3165 33.6 16.6258 33.6938 16.8889 33.8696C17.1521 34.0454 17.3571 34.2953 17.4782 34.5877C17.5993 34.88 17.631 35.2018 17.5693 35.5121C17.5075 35.8225 17.3552 36.1076 17.1314 36.3313C16.9076 36.5551 16.6225 36.7075 16.3122 36.7692C16.0018 36.831 15.6801 36.7993 15.3877 36.6782C15.0954 36.5571 14.8455 36.352 14.6697 36.0889C14.4939 35.8258 14.4 35.5164 14.4 35.2C14.4 34.7756 14.5686 34.3687 14.8687 34.0686C15.1687 33.7685 15.5757 33.6 16 33.6Z" fill="#426FA4"/>
<path d="M33.58 36.2H19.88C19.6148 36.2 19.3604 36.0946 19.1729 35.9071C18.9853 35.7196 18.88 35.4652 18.88 35.2C18.88 34.9348 18.9853 34.6804 19.1729 34.4929C19.3604 34.3054 19.6148 34.2 19.88 34.2H33.58C33.8452 34.2 34.0995 34.3054 34.2871 34.4929C34.4746 34.6804 34.58 34.9348 34.58 35.2C34.58 35.4652 34.4746 35.7196 34.2871 35.9071C34.0995 36.0946 33.8452 36.2 33.58 36.2ZM30.4 13.37H17.6C17.3348 13.37 17.0804 13.2646 16.8929 13.0771C16.7053 12.8896 16.6 12.6352 16.6 12.37V5.87C16.6 5.60478 16.7053 5.35043 16.8929 5.16289C17.0804 4.97536 17.3348 4.87 17.6 4.87H20.66V4.2C20.66 3.48392 20.9444 2.79716 21.4508 2.29081C21.9571 1.78446 22.6439 1.5 23.36 1.5H24.64C24.9941 1.5 25.3447 1.56991 25.6717 1.70572C25.9987 1.84153 26.2957 2.04057 26.5456 2.29141C26.7956 2.54226 26.9935 2.83999 27.1281 3.16751C27.2627 3.49503 27.3313 3.8459 27.33 4.2V4.87H30.4C30.6652 4.87 30.9195 4.97536 31.1071 5.16289C31.2946 5.35043 31.4 5.60478 31.4 5.87V12.37C31.4 12.6352 31.2946 12.8896 31.1071 13.0771C30.9195 13.2646 30.6652 13.37 30.4 13.37ZM18.6 11.37H29.4V6.87H26.33C26.0648 6.87 25.8104 6.76464 25.6229 6.57711C25.4353 6.38957 25.33 6.13522 25.33 5.87V4.2C25.33 4.01607 25.2576 3.83952 25.1285 3.70853C24.9994 3.57754 24.8239 3.50263 24.64 3.5H23.36C23.1751 3.50259 22.9986 3.57717 22.8679 3.70788C22.7371 3.8386 22.6626 4.01515 22.66 4.2V5.87C22.66 6.13522 22.5546 6.38957 22.3671 6.57711C22.1795 6.76464 21.9252 6.87 21.66 6.87H18.6V11.37Z" fill="#426FA4"/>
</svg>
