<svg width="40" height="40" viewBox="0 0 51 51" fill="none" xmlns="http://www.w3.org/2000/svg">
<g clip-path="url(#clip0_109_242)">
<path d="M27.4595 43.6576L22.2209 38.268V40.5132H9.20351L15.5841 46.8085H22.2209V49.0469L27.4595 43.6576ZM11.9607 29.0645L6.57103 34.3031H8.80945V40.0338H15.1115V34.3031H17.3436L11.9607 29.0645ZM37.116 30.0821L35.2386 35.7606H38.9345L37.116 30.0821ZM37.116 30.0821L35.2386 35.7606H38.9345L37.116 30.0821ZM37.116 30.0821L35.2386 35.7606H38.9345L37.116 30.0821ZM48.3807 19.953H33.138V4.25735C33.138 2.09742 31.3722 0.331543 29.2059 0.331543H3.93218C1.76588 0.331543 0 2.09742 0 4.25735V29.7542C0 31.9205 1.76588 33.6796 3.93218 33.6796H5.74388V31.0539H3.93218C3.58666 31.0545 3.25501 30.918 3.01005 30.6743C2.7651 30.4306 2.62686 30.0997 2.6257 29.7542V4.25735C2.62686 3.91183 2.7651 3.58089 3.01005 3.33721C3.25501 3.09352 3.58666 2.95701 3.93218 2.95764H29.2059C29.5514 2.95701 29.883 3.09352 30.128 3.33721C30.3729 3.58089 30.5112 3.91183 30.5123 4.25735V19.953H23.1074C22.5889 19.9514 22.0817 20.1041 21.6503 20.3917C21.2189 20.6793 20.8829 21.0887 20.6849 21.5679C19.8668 20.9141 19.0783 20.2241 18.3218 19.5C22.6544 14.8259 23.3831 10.4542 23.4289 10.1849L23.4572 10.0407H26.9212V8.07119H18.046V5.13032H16.0766V8.07119H7.20136V10.0407H21.4463C21.2889 10.8021 20.396 14.3012 16.9232 18.0756C14.3629 15.3052 13.2142 13.1126 13.1947 13.0732L12.3217 13.5194L11.4419 13.9657C11.5272 14.1298 12.7616 16.5129 15.5251 19.48C13.7066 21.1607 11.3499 22.8281 8.29746 24.292L9.15091 26.0642C12.4265 24.502 14.9605 22.703 16.9169 20.8981C18.0398 21.9757 19.2328 22.9779 20.4881 23.8979V31.0531H18.256V33.6788H20.4881V37.3416H22.4771V37.23L28.8576 43.7879L22.4771 50.3458C22.4771 50.3458 21.6567 50.6673 23.1074 50.6673H48.3811C48.7247 50.6682 49.0652 50.6013 49.3829 50.4704C49.7007 50.3395 49.9895 50.1472 50.2328 49.9045C50.4761 49.6619 50.6692 49.3735 50.8009 49.0561C50.9326 48.7387 51.0004 48.3984 51.0004 48.0548V22.5655C51.0003 22.2219 50.9324 21.8816 50.8006 21.5642C50.6689 21.2468 50.4758 20.9586 50.2324 20.7159C49.9891 20.4732 49.7003 20.2809 49.3825 20.15C49.0648 20.0191 48.7243 19.9522 48.3807 19.953ZM40.6872 41.2156L39.7354 38.2484H34.4178L33.4397 41.2156H30.2888L35.4422 26.7866H38.8493L43.9564 41.2156H40.6872Z" fill="#B9D1EB"/>
</g>
<defs>
<clipPath id="clip0_109_242">
<rect width="51" height="51" fill="white"/>
</clipPath>
</defs>
</svg>
