<svg width="35" height="35" viewBox="0 0 43 43" fill="none" xmlns="http://www.w3.org/2000/svg">
<path d="M21.5 8.95841V25.0834M12.5417 25.0834H8.95832C8.48314 25.0834 8.02743 25.2722 7.69142 25.6082C7.35542 25.9442 7.16666 26.3999 7.16666 26.8751V34.0417C7.16666 34.5169 7.35542 34.9726 7.69142 35.3086C8.02743 35.6447 8.48314 35.8334 8.95832 35.8334H34.0417C34.5168 35.8334 34.9726 35.6447 35.3086 35.3086C35.6446 34.9726 35.8333 34.5169 35.8333 34.0417V26.8751C35.8333 26.3999 35.6446 25.9442 35.3086 25.6082C34.9726 25.2722 34.5168 25.0834 34.0417 25.0834H30.4583M14.3333 16.1251L21.5 7.16675L28.6667 16.1251M30.4583 30.4584H30.4762" stroke="#426FA4" stroke-width="2" stroke-linecap="round" stroke-linejoin="round"/>
</svg>
