<svg width="38" height="38" viewBox="0 0 38 38" fill="none" xmlns="http://www.w3.org/2000/svg">
<g clip-path="url(#clip0_235_62)">
<path d="M14.25 16.625C9.66625 16.625 5.9375 12.8962 5.9375 8.3125C5.9375 3.72875 9.66625 0 14.25 0C18.8337 0 22.5625 3.72875 22.5625 8.3125C22.5625 12.8962 18.8337 16.625 14.25 16.625ZM14.25 2.375C10.9761 2.375 8.3125 5.03856 8.3125 8.3125C8.3125 11.5864 10.9761 14.25 14.25 14.25C17.5239 14.25 20.1875 11.5864 20.1875 8.3125C20.1875 5.03856 17.5239 2.375 14.25 2.375ZM27.3125 38C26.9976 38 26.6955 37.8749 26.4728 37.6522C26.2501 37.4295 26.125 37.1274 26.125 36.8125V29.5509C26.1228 27.3652 25.2536 25.2695 23.7081 23.7238C22.1627 22.1781 20.0672 21.3086 17.8814 21.3061H10.6186C8.43285 21.3086 6.33733 22.1781 4.79186 23.7238C3.24639 25.2695 2.3772 27.3652 2.375 29.5509V36.8125C2.375 37.1274 2.24989 37.4295 2.02719 37.6522C1.80449 37.8749 1.50244 38 1.1875 38C0.872555 38 0.57051 37.8749 0.347811 37.6522C0.125111 37.4295 0 37.1274 0 36.8125V29.5509C0 23.6966 4.76425 18.9311 10.6186 18.9311H17.8814C23.7358 18.9311 28.5 23.6954 28.5 29.5509V36.8125C28.5 37.1274 28.3749 37.4295 28.1522 37.6522C27.9295 37.8749 27.6274 38 27.3125 38ZM36.8125 38C36.4976 38 36.1955 37.8749 35.9728 37.6522C35.7501 37.4295 35.625 37.1274 35.625 36.8125V29.5509C35.6228 27.3652 34.7536 25.2695 33.2081 23.7238C31.6627 22.1781 29.5672 21.3086 27.3814 21.3061C27.0664 21.3061 26.7644 21.181 26.5417 20.9583C26.319 20.7356 26.1939 20.4336 26.1939 20.1186C26.1939 19.8037 26.319 19.5016 26.5417 19.2789C26.7644 19.0562 27.0664 18.9311 27.3814 18.9311C33.2358 18.9311 38 23.6954 38 29.5509V36.8125C38 37.1274 37.8749 37.4295 37.6522 37.6522C37.4295 37.8749 37.1274 38 36.8125 38Z" fill="#19274A"/>
<path d="M23.75 16.625C23.4351 16.625 23.133 16.4999 22.9103 16.2772C22.6876 16.0545 22.5625 15.7524 22.5625 15.4375C22.5625 15.1226 22.6876 14.8205 22.9103 14.5978C23.133 14.3751 23.4351 14.25 23.75 14.25C27.0239 14.25 29.6875 11.5864 29.6875 8.3125C29.6875 5.03856 27.0239 2.375 23.75 2.375C23.4351 2.375 23.133 2.24989 22.9103 2.02719C22.6876 1.80449 22.5625 1.50244 22.5625 1.1875C22.5625 0.872555 22.6876 0.57051 22.9103 0.347811C23.133 0.125111 23.4351 0 23.75 0C28.3337 0 32.0625 3.72875 32.0625 8.3125C32.0625 12.8962 28.3337 16.625 23.75 16.625Z" fill="#19274A"/>
</g>
<defs>
<clipPath id="clip0_235_62">
<rect width="38" height="38" fill="white"/>
</clipPath>
</defs>
</svg>
